<?xml version="1.0" encoding="UTF-8" standalone="no"?>
<svg
   viewBox="0 0 39.11853 39.123096"
   version="1.1"
   id="svg309"
   sodipodi:docname="logo.svg"
   inkscape:version="1.2.1 (9c6d41e410, 2022-07-14, custom)"
   width="39.11853"
   height="39.123096"
   xmlns:inkscape="http://www.inkscape.org/namespaces/inkscape"
   xmlns:sodipodi="http://sodipodi.sourceforge.net/DTD/sodipodi-0.dtd"
   xmlns="http://www.w3.org/2000/svg"
   xmlns:svg="http://www.w3.org/2000/svg">
  <defs
     id="defs313" />
  <sodipodi:namedview
     id="namedview311"
     pagecolor="#ffffff"
     bordercolor="#666666"
     borderopacity="1.0"
     inkscape:showpageshadow="2"
     inkscape:pageopacity="0.0"
     inkscape:pagecheckerboard="0"
     inkscape:deskcolor="#d1d1d1"
     showgrid="false"
     inkscape:zoom="3.6894737"
     inkscape:cx="68.980028"
     inkscape:cy="116.27675"
     inkscape:window-width="1918"
     inkscape:window-height="1057"
     inkscape:window-x="1920"
     inkscape:window-y="21"
     inkscape:window-maximized="1"
     inkscape:current-layer="svg309" />
  <g
     id="g366"
     transform="matrix(-1,0,0,1,40.011387,-0.46877917)">
    <path
       d="M 1.478305,24.762505 C 4.090968,35.241887 14.704833,41.619498 25.185437,39.006224 35.661762,36.393561 42.039373,25.779084 39.425488,15.300314 36.814048,4.8197096 26.200182,-1.5585128 15.722635,1.0541499 5.242642,3.6668126 -1.134358,14.282512 1.478305,24.762505 Z"
       fill="#f7931a"
       id="path285"
       style="stroke-width:0.611292" />
    <path
       d="M 29.073706,17.243611 C 29.4631,14.640729 27.48129,13.241482 24.771432,12.308039 L 25.65047,8.7821054 23.504224,8.2472248 22.648415,11.680242 C 22.084192,11.539644 21.504687,11.406994 20.92885,11.275566 L 21.790772,7.8199316 19.645747,7.2850509 18.766098,10.809762 c -0.467027,-0.106365 -0.925496,-0.211508 -1.370517,-0.322151 l 0.0024,-0.011 -2.959876,-0.7390519 -0.570947,2.2923459 c 0,0 1.592416,0.364941 1.558795,0.387559 0.869257,0.217009 1.026359,0.792235 1.000074,1.248258 l -1.001297,4.016801 c 0.05991,0.01528 0.137541,0.03729 0.223122,0.07152 -0.07152,-0.01773 -0.147933,-0.03729 -0.22679,-0.05624 l -1.403526,5.626944 c -0.106365,0.264078 -0.375945,0.660195 -0.98357,0.509818 0.0214,0.03118 -1.560017,-0.389394 -1.560017,-0.389394 l -1.065482,2.456784 2.792993,0.696261 c 0.519599,0.130206 1.028805,0.266524 1.530065,0.394895 l -0.888208,3.566279 2.143802,0.53488 0.879649,-3.528378 c 0.585618,0.158936 1.15412,0.305646 1.710396,0.443798 l -0.876593,3.511873 2.146247,0.534881 0.888207,-3.559554 c 3.659806,0.692594 6.411844,0.413233 7.570242,-2.896914 0.933443,-2.665233 -0.04646,-4.202633 -1.972028,-5.205152 1.402304,-0.323374 2.458617,-1.245814 2.740422,-3.151212 z m -4.903785,6.876426 c -0.663252,2.665234 -5.150748,1.224418 -6.605623,0.863145 l 1.178571,-4.724678 c 1.454875,0.363108 6.120257,1.081988 5.427052,3.861533 z M 24.833784,17.2051 c -0.605179,2.424385 -4.340174,1.192631 -5.551755,0.890653 l 1.068538,-4.285158 c 1.211581,0.301978 5.113459,0.865589 4.483217,3.394505 z"
       fill="#ffffff"
       id="path287"
       style="stroke-width:0.611292" />
  </g>
</svg>
